# 3ds Max Wavefront OBJ Exporter v0.99 - (c)2007 guruware
# File Created: 10.04.2020 21:27:23

mtllib FB_low.mtl

#
# object FuelBox_low
#

v  -58.1100 43.6398 -74.4528
v  -58.1100 43.6398 -71.2822
v  -61.1674 43.6398 -71.2822
v  -61.1674 43.6398 -74.4528
v  -58.5668 73.3290 -74.0470
v  -61.1674 73.3290 -74.4528
v  -61.1674 73.3290 -71.2822
v  -58.1100 73.3290 -71.2822
v  -61.1674 73.3290 -93.8154
v  -61.1674 73.3290 -97.1906
v  -61.1674 43.6398 -97.1906
v  -61.1674 43.6398 -93.8154
v  -58.1100 43.6398 -97.1906
v  -58.1100 43.6398 -93.8154
v  -61.1674 43.6398 -79.3502
v  -61.1674 73.3290 -78.2340
v  -58.1100 43.6398 -79.3502
v  -54.9330 43.6398 -74.4528
v  -54.9330 43.6398 -71.2822
v  -54.9330 73.3290 -71.2822
v  -54.4762 73.3290 -74.0470
v  -58.4182 73.3290 -97.1906
v  -54.9330 43.6398 -97.1906
v  -54.9330 43.6398 -93.8154
v  -58.4182 73.3290 -93.8154
v  -54.9330 43.6398 -79.3502
v  -58.5668 73.3290 -77.7616
v  -58.1100 77.3132 -76.5750
v  -58.3004 81.1194 -78.9706
v  -54.9330 77.3132 -76.5750
v  -56.9094 80.6302 -78.8960
v  -57.6900 80.1390 -78.6124
v  -57.5414 80.4726 -77.9352
v  -56.9094 80.9638 -78.2188
v  -57.9880 79.3444 -78.1538
v  -57.8396 79.6780 -77.4766
v  -57.5414 78.8834 -77.0178
v  -57.6900 78.5498 -77.6950
v  -56.7610 78.3924 -76.7342
v  -56.7610 78.0588 -77.4114
v  -56.3730 78.0588 -77.4114
v  -56.3730 78.3924 -76.7342
v  -56.3999 80.9638 -78.2188
v  -56.5348 80.6450 -77.7246
v  -56.3730 80.6450 -77.7246
v  -56.9648 80.3744 -77.5684
v  -57.1290 79.9366 -77.3158
v  -56.9648 79.4990 -77.0630
v  -56.5348 79.2284 -76.9068
v  -56.5220 81.6292 -75.9826
v  -56.3730 81.6292 -75.9826
v  -56.9158 81.3440 -75.9576
v  -57.0662 80.8828 -75.9172
v  -56.9158 80.4216 -75.8768
v  -56.5220 80.1364 -75.8520
v  -56.3730 81.4184 -74.0944
v  -56.4880 81.4184 -74.0944
v  -56.8272 81.1720 -74.0944
v  -56.9566 80.7734 -74.0944
v  -56.8521 80.3748 -74.0944
v  -56.5131 80.1284 -74.0944
v  -56.5124 81.0678 -71.9900
v  -56.3730 81.0680 -71.9900
v  -56.8908 80.7940 -72.0140
v  -57.0354 80.3508 -72.0528
v  -56.8908 79.9078 -72.0916
v  -56.5124 79.6338 -72.1156
v  -58.3164 74.6382 -94.0040
v  -58.4640 74.8750 -79.5820
v  -58.2130 79.3670 -81.9794
v  -58.1100 81.0570 -89.3670
v  -58.2464 79.6992 -88.9486
v  -58.2568 76.9758 -93.0798
v  -58.1100 78.2516 -94.9248
v  -54.3278 73.3290 -97.1906
v  -54.9330 81.0570 -89.3670
v  -54.9330 78.2516 -94.9248
v  -54.7426 81.1194 -78.9706
v  -56.3999 80.6302 -78.8960
v  -56.3730 79.2284 -76.9068
v  -56.3730 80.1364 -75.8520
v  -56.3981 80.1284 -74.0944
v  -56.3730 79.6338 -72.1156
v  -51.7790 43.6398 -71.2822
v  -51.7790 43.6398 -74.4528
v  -51.7790 73.3290 -71.2822
v  -51.7790 73.3290 -74.4528
v  -51.9322 73.3290 -97.1906
v  -51.9322 73.3290 -93.8154
v  -51.7790 43.6398 -93.8154
v  -51.7790 43.6398 -97.1906
v  -51.7790 73.3290 -78.2340
v  -51.7790 43.6398 -79.3502
v  -54.3278 73.3290 -93.8154
v  -54.4762 73.3290 -77.7616
v  -55.2046 80.4726 -77.9352
v  -55.3530 80.1390 -78.6124
v  -55.9343 80.6302 -78.8960
v  -55.9343 80.9638 -78.2188
v  -54.9064 79.6780 -77.4766
v  -55.0550 79.3444 -78.1538
v  -55.2046 78.8834 -77.0178
v  -55.3530 78.5498 -77.6950
v  -55.9850 78.0588 -77.4114
v  -55.9850 78.3924 -76.7342
v  -56.2112 80.6450 -77.7246
v  -55.7812 80.3744 -77.5684
v  -55.6170 79.9366 -77.3158
v  -55.7812 79.4990 -77.0630
v  -56.2112 79.2284 -76.9068
v  -56.2240 81.6292 -75.9826
v  -55.8302 81.3440 -75.9576
v  -55.6796 80.8828 -75.9172
v  -55.8302 80.4216 -75.8768
v  -56.2240 80.1364 -75.8520
v  -56.2578 81.4184 -74.0944
v  -55.9188 81.1720 -74.0944
v  -55.7892 80.7734 -74.0944
v  -55.9439 80.3748 -74.0944
v  -56.2829 80.1284 -74.0944
v  -56.2336 81.0678 -71.9900
v  -55.8552 80.7940 -72.0140
v  -55.7106 80.3508 -72.0528
v  -55.8552 79.9078 -72.0916
v  -56.2336 79.6338 -72.1156
v  -54.4296 74.6382 -94.0040
v  -54.5790 74.8750 -79.5820
v  -54.8300 79.3670 -81.9794
v  -54.7968 79.6992 -88.9486
v  -54.7862 76.9758 -93.0798
v  -56.3730 80.6998 -72.0222
v  -56.6250 80.5665 -72.0339
v  -56.6954 80.3508 -72.0528
v  -56.6250 80.1352 -72.0717
v  -56.3730 80.0018 -72.0834
v  -56.1210 80.5665 -72.0339
v  -56.0506 80.3508 -72.0528
v  -56.1210 80.1352 -72.0717
v  -56.3730 80.3509 -72.0528
# 139 vertices

vn 0.0000 -1.0000 -0.0000
vn 0.0000 -0.7071 0.7071
vn -0.5772 -0.5772 0.5776
vn -0.7071 -0.7071 -0.0000
vn -0.1716 0.9619 0.2128
vn -0.7071 0.7071 -0.0000
vn -0.5771 0.5775 0.5775
vn 0.0000 0.7071 0.7071
vn -0.5771 0.5775 -0.5775
vn -0.5772 -0.5772 -0.5776
vn 0.0000 -0.7071 -0.7071
vn 0.1716 0.9619 0.2128
vn -0.2198 0.4396 -0.8709
vn -0.6807 0.7326 -0.0031
vn -0.6923 0.7216 -0.0061
vn 0.0126 0.5341 0.8453
vn -0.6130 0.6965 0.3730
vn -0.0126 0.5341 0.8453
vn -0.2396 0.3373 -0.9104
vn -0.6711 0.1282 -0.7302
vn -0.6723 0.6784 0.2961
vn -0.3155 0.9470 0.0603
vn -0.8224 -0.2762 -0.4974
vn -0.7980 0.2892 0.5287
vn -0.6427 -0.1411 0.7530
vn -0.6508 -0.7081 -0.2739
vn -0.2617 -0.4501 0.8537
vn -0.2022 -0.9522 -0.2289
vn 0.0000 -0.9568 -0.2907
vn 0.0000 -0.4396 0.8982
vn 0.0000 0.9984 0.0572
vn -0.2278 0.9637 0.1396
vn 0.0000 0.9996 0.0290
vn -0.6365 0.7147 0.2899
vn -0.7679 0.3243 0.5524
vn -0.5903 -0.0313 0.8066
vn -0.2136 -0.2189 0.9521
vn -0.2926 0.9384 -0.1839
vn 0.0000 0.9798 -0.1999
vn -0.7801 0.6141 -0.1198
vn -0.9976 0.0664 0.0198
vn -0.8325 -0.5242 0.1793
vn -0.3128 -0.8873 0.3388
vn 0.0000 0.9905 0.1374
vn -0.3029 0.9438 0.1320
vn -0.7997 0.5937 0.0893
vn -0.9818 0.1861 0.0366
vn -0.9149 -0.4013 -0.0443
vn -0.3255 -0.9379 -0.1198
vn -0.2342 0.6438 0.7285
vn 0.0000 0.6126 0.7904
vn -0.6198 0.3746 0.6896
vn -0.7774 -0.0725 0.6248
vn -0.6199 -0.5287 0.5798
vn -0.2335 -0.8195 0.5234
vn -0.9355 0.2312 0.2671
vn -0.9438 0.2007 -0.2625
vn -0.8215 -0.4783 -0.3105
vn -0.6251 0.7575 -0.1884
vn -0.8194 -0.5516 0.1556
vn -0.8042 -0.3647 0.4693
vn -0.6099 0.5600 -0.5607
vn 0.2193 0.4470 -0.8673
vn 0.6251 0.7575 -0.1884
vn 0.6012 0.5745 -0.5554
vn 0.6130 0.6965 0.3730
vn 0.0000 0.2907 -0.9568
vn 0.0000 -0.3226 0.9465
vn 0.0000 -0.9384 0.3456
vn 0.0000 -0.9922 -0.1243
vn 0.0000 -0.8141 0.5807
vn 0.5772 -0.5772 0.5776
vn 0.7071 -0.7071 -0.0000
vn 0.5771 0.5775 0.5775
vn 0.7071 0.7071 -0.0000
vn 0.5756 0.5790 -0.5775
vn 0.7040 0.7101 -0.0038
vn 0.7088 -0.7054 -0.0000
vn 0.5791 -0.5761 -0.5768
vn 0.7084 0.7058 -0.0031
vn 0.6777 0.7353 0.0031
vn 0.6928 0.7211 -0.0038
vn 0.7211 0.6814 0.1251
vn 0.5740 0.0442 -0.8177
vn 0.2396 0.3373 -0.9104
vn 0.2304 0.9726 0.0305
vn 0.8984 0.2068 0.3876
vn 0.6998 -0.3487 -0.6235
vn 0.7241 -0.2259 0.6516
vn 0.5742 -0.6921 -0.4373
vn 0.2731 -0.9369 -0.2182
vn 0.2617 -0.4501 0.8537
vn 0.2643 0.9581 0.1106
vn 0.6365 0.7147 0.2899
vn 0.7679 0.3243 0.5524
vn 0.5903 -0.0313 0.8066
vn 0.2136 -0.2189 0.9521
vn 0.2926 0.9384 -0.1839
vn 0.7801 0.6141 -0.1198
vn 0.9976 0.0664 0.0198
vn 0.8274 -0.5043 0.2472
vn 0.3257 -0.8726 0.3639
vn 0.3029 0.9438 0.1320
vn 0.7997 0.5937 0.0893
vn 0.9917 -0.1282 -0.0038
vn 0.7107 -0.6989 -0.0809
vn 0.2967 -0.9474 -0.1198
vn 0.2342 0.6438 0.7285
vn 0.6198 0.3746 0.6896
vn 0.7774 -0.0725 0.6248
vn 0.6542 -0.5340 0.5356
vn 0.2572 -0.8228 0.5068
vn 0.9269 0.2998 0.2258
vn 0.9430 0.2151 -0.2540
vn 0.8215 -0.4783 -0.3105
vn 0.8194 -0.5516 0.1556
vn 0.7921 -0.3312 0.5128
vn 0.0001 -0.0872 0.9962
vn -0.0000 -0.0873 0.9962
vn 0.0000 -0.0872 0.9962
vn -0.0001 -0.0872 0.9962
vn 0.0000 -0.0873 0.9962
vn -0.0000 -0.0872 0.9962
# 123 vertex normals

vt 0.0652 0.8262 0.0000
vt 0.0200 0.8262 0.0000
vt 0.0200 0.7826 0.0000
vt 0.0652 0.7826 0.0000
vt 0.0594 0.7206 0.0000
vt 0.0652 0.7576 0.0000
vt 0.0200 0.7576 0.0000
vt 0.0200 0.7141 0.0000
vt 0.8179 0.4961 0.0000
vt 0.8614 0.4961 0.0000
vt 0.8614 0.9189 0.0000
vt 0.8179 0.9189 0.0000
vt 0.6323 0.4605 0.0000
vt 0.5843 0.4605 0.0000
vt 0.5843 0.0376 0.0000
vt 0.6323 0.0376 0.0000
vt 0.3890 0.8262 0.0000
vt 0.3409 0.8262 0.0000
vt 0.3409 0.7826 0.0000
vt 0.3890 0.7826 0.0000
vt 0.8383 0.0376 0.0000
vt 0.8542 0.4605 0.0000
vt 0.1349 0.7826 0.0000
vt 0.1349 0.8262 0.0000
vt 0.9533 0.4605 0.0000
vt 0.9081 0.4605 0.0000
vt 0.9081 0.0376 0.0000
vt 0.9533 0.0376 0.0000
vt 0.0652 0.8714 0.0000
vt 0.0200 0.8714 0.0000
vt 0.0200 0.6689 0.0000
vt 0.0594 0.6623 0.0000
vt 0.9067 0.4961 0.0000
vt 0.9067 0.9189 0.0000
vt 0.0200 0.0637 0.0000
vt 0.0200 0.0200 0.0000
vt 0.4448 0.0200 0.0000
vt 0.4448 0.0593 0.0000
vt 0.3890 0.8714 0.0000
vt 0.3409 0.8714 0.0000
vt 0.3409 0.7185 0.0000
vt 0.3890 0.7185 0.0000
vt 0.3890 0.7576 0.0000
vt 0.3409 0.7576 0.0000
vt 0.1349 0.8714 0.0000
vt 0.1123 0.7206 0.0000
vt 0.1190 0.7576 0.0000
vt 0.4974 0.4284 0.0000
vt 0.4432 0.3943 0.0000
vt 0.5542 0.4115 0.0000
vt 0.5542 0.4645 0.0000
vt 0.4917 0.5005 0.0000
vt 0.5555 0.5005 0.0000
vt 0.5484 0.5627 0.0000
vt 0.4988 0.5627 0.0000
vt 0.4416 0.4344 0.0000
vt 0.4534 0.4356 0.0000
vt 0.4511 0.4447 0.0000
vt 0.4413 0.4434 0.0000
vt 0.4651 0.4385 0.0000
vt 0.4625 0.4478 0.0000
vt 0.4729 0.4527 0.0000
vt 0.4764 0.4437 0.0000
vt 0.4816 0.4597 0.0000
vt 0.4881 0.4525 0.0000
vt 0.4920 0.4561 0.0000
vt 0.4849 0.4637 0.0000
vt 0.4353 0.4442 0.0000
vt 0.4385 0.4526 0.0000
vt 0.4359 0.4524 0.0000
vt 0.4475 0.4548 0.0000
vt 0.4566 0.4583 0.0000
vt 0.4650 0.4629 0.0000
vt 0.4722 0.4687 0.0000
vt 0.4292 0.4822 0.0000
vt 0.4271 0.4819 0.0000
vt 0.4359 0.4831 0.0000
vt 0.4428 0.4838 0.0000
vt 0.4503 0.4849 0.0000
vt 0.4578 0.4871 0.0000
vt 0.4257 0.5088 0.0000
vt 0.4273 0.5089 0.0000
vt 0.4334 0.5096 0.0000
vt 0.4394 0.5109 0.0000
vt 0.4452 0.5123 0.0000
vt 0.4512 0.5139 0.0000
vt 0.4274 0.5364 0.0000
vt 0.4256 0.5371 0.0000
vt 0.4329 0.5357 0.0000
vt 0.4378 0.5362 0.0000
vt 0.4425 0.5373 0.0000
vt 0.4471 0.5395 0.0000
vt 0.5542 0.1346 0.0000
vt 0.5542 0.1827 0.0000
vt 0.5356 0.1800 0.0000
vt 0.5322 0.3856 0.0000
vt 0.4682 0.3514 0.0000
vt 0.4441 0.2461 0.0000
vt 0.4634 0.2521 0.0000
vt 0.5023 0.1932 0.0000
vt 0.4841 0.1669 0.0000
vt 0.4448 0.1179 0.0000
vt 0.0200 0.1092 0.0000
vt 0.7879 0.4961 0.0000
vt 0.7879 0.5776 0.0000
vt 0.7413 0.5776 0.0000
vt 0.7413 0.4961 0.0000
vt 0.5514 0.6221 0.0000
vt 0.4958 0.6221 0.0000
vt 0.7907 0.7301 0.0000
vt 0.7386 0.7301 0.0000
vt 0.5152 0.0637 0.0000
vt 0.5152 0.1092 0.0000
vt 0.5181 0.7597 0.0000
vt 0.5224 0.7466 0.0000
vt 0.5335 0.7386 0.0000
vt 0.5408 0.7386 0.0000
vt 0.5411 0.7808 0.0000
vt 0.5356 0.7808 0.0000
vt 0.5224 0.7728 0.0000
vt 0.4348 0.4345 0.0000
vt 0.4739 0.4706 0.0000
vt 0.4600 0.4882 0.0000
vt 0.4529 0.5142 0.0000
vt 0.4488 0.5406 0.0000
vt 0.0200 0.9163 0.0000
vt 0.0652 0.9163 0.0000
vt 0.0200 0.6239 0.0000
vt 0.0652 0.6239 0.0000
vt 0.9516 0.4961 0.0000
vt 0.9516 0.9189 0.0000
vt 0.0200 0.1787 0.0000
vt 0.0681 0.1787 0.0000
vt 0.0681 0.6015 0.0000
vt 0.0200 0.6015 0.0000
vt 0.3890 0.9163 0.0000
vt 0.3409 0.9163 0.0000
vt 0.2900 0.1787 0.0000
vt 0.2741 0.6015 0.0000
vt 0.1349 0.9163 0.0000
vt 0.3890 0.1787 0.0000
vt 0.3890 0.6015 0.0000
vt 0.3438 0.6015 0.0000
vt 0.3438 0.1787 0.0000
vt 0.4448 0.1521 0.0000
vt 0.0200 0.1543 0.0000
vt 0.3890 0.6261 0.0000
vt 0.3890 0.6602 0.0000
vt 0.3409 0.6602 0.0000
vt 0.3409 0.6261 0.0000
vt 0.1190 0.6239 0.0000
vt 0.1123 0.6623 0.0000
vt 0.4256 0.8047 0.0000
vt 0.4785 0.8047 0.0000
vt 0.4958 0.9157 0.0000
vt 0.4616 0.8615 0.0000
vt 0.4628 0.6763 0.0000
vt 0.4619 0.6857 0.0000
vt 0.4515 0.6858 0.0000
vt 0.4523 0.6770 0.0000
vt 0.4735 0.6747 0.0000
vt 0.4745 0.6842 0.0000
vt 0.4835 0.6718 0.0000
vt 0.4875 0.6812 0.0000
vt 0.4984 0.6760 0.0000
vt 0.4936 0.6675 0.0000
vt 0.4975 0.6642 0.0000
vt 0.5033 0.6731 0.0000
vt 0.4513 0.6681 0.0000
vt 0.4469 0.6760 0.0000
vt 0.4487 0.6681 0.0000
vt 0.4602 0.6667 0.0000
vt 0.4692 0.6643 0.0000
vt 0.4780 0.6610 0.0000
vt 0.4859 0.6567 0.0000
vt 0.4432 0.6379 0.0000
vt 0.4454 0.6377 0.0000
vt 0.4521 0.6377 0.0000
vt 0.4591 0.6378 0.0000
vt 0.4666 0.6377 0.0000
vt 0.4744 0.6365 0.0000
vt 0.4452 0.6106 0.0000
vt 0.4468 0.6108 0.0000
vt 0.4531 0.6108 0.0000
vt 0.4593 0.6104 0.0000
vt 0.4657 0.6097 0.0000
vt 0.4719 0.6090 0.0000
vt 0.4489 0.5818 0.0000
vt 0.4507 0.5829 0.0000
vt 0.4560 0.5847 0.0000
vt 0.4608 0.5849 0.0000
vt 0.4654 0.5842 0.0000
vt 0.4703 0.5821 0.0000
vt 0.7555 0.8047 0.0000
vt 0.7101 0.8233 0.0000
vt 0.7074 0.8047 0.0000
vt 0.5045 0.8267 0.0000
vt 0.5387 0.8908 0.0000
vt 0.6440 0.9149 0.0000
vt 0.6380 0.8955 0.0000
vt 0.6969 0.8567 0.0000
vt 0.7232 0.8749 0.0000
vt 0.4308 0.9398 0.0000
vt 0.4405 0.9325 0.0000
vt 0.4460 0.9330 0.0000
vt 0.4429 0.9751 0.0000
vt 0.4363 0.9746 0.0000
vt 0.4287 0.9659 0.0000
vt 0.4256 0.9525 0.0000
vt 0.4458 0.6852 0.0000
vt 0.4879 0.6551 0.0000
vt 0.4766 0.6357 0.0000
vt 0.4736 0.6089 0.0000
vt 0.4721 0.5811 0.0000
vt 0.6548 0.4961 0.0000
vt 0.7102 0.4961 0.0000
vt 0.7123 0.7015 0.0000
vt 0.6569 0.7015 0.0000
vt 0.6504 0.9457 0.0000
vt 0.7073 0.9457 0.0000
vt 0.7021 0.9800 0.0000
vt 0.6513 0.9800 0.0000
vt 0.5800 0.5999 0.0000
vt 0.6314 0.5999 0.0000
vt 0.6315 0.6614 0.0000
vt 0.5799 0.6614 0.0000
vt 0.5805 0.4961 0.0000
vt 0.6309 0.4961 0.0000
vt 0.4850 0.7121 0.0000
vt 0.4811 0.7808 0.0000
vt 0.4294 0.7808 0.0000
vt 0.4256 0.7121 0.0000
vt 0.4291 0.5420 0.0000
vt 0.4334 0.5404 0.0000
vt 0.4370 0.5407 0.0000
vt 0.4405 0.5416 0.0000
vt 0.4441 0.5443 0.0000
vt 0.4536 0.5775 0.0000
vt 0.4574 0.5803 0.0000
vt 0.4606 0.5809 0.0000
vt 0.4636 0.5800 0.0000
vt 0.4672 0.5769 0.0000
vt 0.4342 0.5457 0.0000
vt 0.4382 0.5463 0.0000
vt 0.4603 0.5754 0.0000
# 245 texture coords

o FuelBox_low
g FuelBox_low
usemtl Caravan
s 2
f 1/1/1 2/2/2 3/3/3 4/4/4 
s 4
f 5/5/5 6/6/6 7/7/7 8/8/8 
s 8
f 3/9/3 2/10/2 8/11/8 7/12/7 
s 64
f 9/13/6 10/14/9 11/15/10 12/16/4 
s 2
f 13/17/11 14/18/1 12/19/4 11/20/10 
s 64
f 15/21/4 16/22/6 9/13/6 12/16/4 
s 2
f 15/23/4 17/24/1 1/1/1 4/4/4 
s 64
f 7/25/7 6/26/6 4/27/4 3/28/3 
f 15/21/4 4/27/4 6/26/6 16/22/6 
s 2
f 14/18/1 17/24/1 15/23/4 12/19/4 
f 1/1/1 18/29/1 19/30/2 2/2/2 
s 4
f 5/5/5 8/8/8 20/31/8 21/32/12 
s 8
f 19/33/2 20/34/8 8/11/8 2/10/2 
s 32
f 13/35/11 11/36/10 10/37/9 22/38/13 
s 2
f 14/18/1 13/17/11 23/39/11 24/40/1 
s 4
f 25/41/14 22/42/13 10/43/9 9/44/6 
s 2
f 1/1/1 17/24/1 26/45/1 18/29/1 
s 4
f 5/5/5 27/46/15 16/47/6 6/6/6 
s 2
f 24/40/1 26/45/1 17/24/1 14/18/1 
s 4
f 25/41/14 9/44/6 16/47/6 27/46/15 
s off
f 28/48/16 29/49/17 27/50/15 5/51/5 
f 5/52/5 21/53/12 30/54/18 28/55/16 
s 8
f 31/56/19 32/57/20 33/58/21 34/59/22 
f 32/57/20 35/60/23 36/61/24 33/58/21 
f 37/62/25 36/61/24 35/60/23 38/63/26 
f 39/64/27 37/62/25 38/63/26 40/65/28 
f 41/66/29 42/67/30 39/64/27 40/65/28 
f 43/68/31 34/59/22 44/69/32 45/70/33 
f 46/71/34 44/69/32 34/59/22 33/58/21 
f 46/71/34 33/58/21 36/61/24 47/72/35 
f 48/73/36 47/72/35 36/61/24 37/62/25 
f 39/64/27 49/74/37 48/73/36 37/62/25 
f 44/69/32 50/75/38 51/76/39 45/70/33 
f 50/75/38 44/69/32 46/71/34 52/77/40 
f 47/72/35 53/78/41 52/77/40 46/71/34 
f 53/78/41 47/72/35 48/73/36 54/79/42 
f 49/74/37 55/80/43 54/79/42 48/73/36 
f 56/81/44 51/76/39 50/75/38 57/82/45 
f 52/77/40 58/83/46 57/82/45 50/75/38 
f 59/84/47 58/83/46 52/77/40 53/78/41 
f 60/85/48 59/84/47 53/78/41 54/79/42 
f 55/80/43 61/86/49 60/85/48 54/79/42 
f 56/81/44 57/82/45 62/87/50 63/88/51 
f 62/87/50 57/82/45 58/83/46 64/89/52 
f 59/84/47 65/90/53 64/89/52 58/83/46 
f 66/91/54 65/90/53 59/84/47 60/85/48 
f 61/86/49 67/92/55 66/91/54 60/85/48 
s off
f 22/93/13 25/94/14 68/95/56 
f 68/95/56 25/94/14 27/50/15 69/96/57 
f 70/97/58 69/96/57 27/50/15 29/49/17 
f 70/97/58 29/49/17 71/98/59 72/99/60 
f 73/100/61 72/99/60 71/98/59 74/101/62 
f 68/95/56 73/100/61 74/101/62 22/93/13 
s 32
f 22/38/13 75/102/63 23/103/11 13/35/11 
s 4
f 74/104/62 71/105/59 76/106/64 77/107/65 
f 30/54/18 78/108/66 29/109/17 28/55/16 
f 71/105/59 29/110/17 78/111/66 76/106/64 
s off
f 74/112/62 77/113/65 75/102/63 22/38/13 
s 1
f 35/114/23 32/115/20 31/116/19 79/117/67 41/118/29 40/119/28 38/120/26 
s 8
f 31/56/19 34/59/22 43/68/31 79/121/67 
f 49/74/37 39/64/27 42/67/30 80/122/68 
f 55/80/43 49/74/37 80/122/68 81/123/69 
f 82/124/70 61/86/49 55/80/43 81/123/69 
f 67/92/55 61/86/49 82/124/70 83/125/71 
s 2
f 84/126/72 19/30/2 18/29/1 85/127/73 
s 4
f 20/31/8 86/128/74 87/129/75 21/32/12 
s 8
f 19/33/2 84/130/72 86/131/74 20/34/8 
s 64
f 88/132/76 89/133/77 90/134/78 91/135/79 
s 2
f 23/39/11 91/136/79 90/137/78 24/40/1 
s 64
f 92/138/80 93/139/73 90/134/78 89/133/77 
s 2
f 18/29/1 26/45/1 93/140/73 85/127/73 
s 64
f 86/141/74 84/142/72 85/143/73 87/144/75 
f 85/143/73 93/139/73 92/138/80 87/144/75 
s 2
f 24/40/1 90/137/78 93/140/73 26/45/1 
s 32
f 88/145/76 91/146/79 23/103/11 75/102/63 
s 4
f 88/147/76 75/148/63 94/149/81 89/150/77 
f 21/32/12 87/129/75 92/151/80 95/152/82 
f 92/151/80 89/150/77 94/149/81 95/152/82 
s off
f 21/153/12 95/154/82 78/155/66 30/156/18 
s 8
f 96/157/83 97/158/84 98/159/85 99/160/86 
f 100/161/87 101/162/88 97/158/84 96/157/83 
f 102/163/89 103/164/90 101/162/88 100/161/87 
f 104/165/91 103/164/90 102/163/89 105/166/92 
f 42/167/30 41/168/29 104/165/91 105/166/92 
f 106/169/93 99/160/86 43/170/31 45/171/33 
f 107/172/94 96/157/83 99/160/86 106/169/93 
f 107/172/94 108/173/95 100/161/87 96/157/83 
f 100/161/87 108/173/95 109/174/96 102/163/89 
f 105/166/92 102/163/89 109/174/96 110/175/97 
f 106/169/93 45/171/33 51/176/39 111/177/98 
f 106/169/93 111/177/98 112/178/99 107/172/94 
f 108/173/95 107/172/94 112/178/99 113/179/100 
f 108/173/95 113/179/100 114/180/101 109/174/96 
f 110/175/97 109/174/96 114/180/101 115/181/102 
f 56/182/44 116/183/103 111/177/98 51/176/39 
f 111/177/98 116/183/103 117/184/104 112/178/99 
f 118/185/105 113/179/100 112/178/99 117/184/104 
f 118/185/105 119/186/106 114/180/101 113/179/100 
f 115/181/102 114/180/101 119/186/106 120/187/107 
f 56/182/44 63/188/51 121/189/108 116/183/103 
f 116/183/103 121/189/108 122/190/109 117/184/104 
f 117/184/104 122/190/109 123/191/110 118/185/105 
f 119/186/106 118/185/105 123/191/110 124/192/111 
f 120/187/107 119/186/106 124/192/111 125/193/112 
s off
f 75/194/63 126/195/113 94/196/81 
f 94/196/81 126/195/113 127/197/114 95/154/82 
f 78/155/66 95/154/82 127/197/114 128/198/115 
f 76/199/64 78/155/66 128/198/115 129/200/116 
f 129/200/116 130/201/117 77/202/65 76/199/64 
f 130/201/117 126/195/113 75/194/63 77/202/65 
s 1
f 103/203/90 104/204/91 41/205/29 79/206/67 98/207/85 97/208/84 101/209/88 
s 8
f 79/210/67 43/170/31 99/160/86 98/159/85 
f 110/175/97 80/211/68 42/167/30 105/166/92 
f 81/212/69 80/211/68 110/175/97 115/181/102 
f 115/181/102 120/187/107 82/213/70 81/212/69 
f 125/193/112 83/214/71 82/213/70 120/187/107 
s 1
f 126/215/113 68/216/56 69/217/57 127/218/114 
s 2
f 68/219/56 126/220/113 130/221/117 73/222/61 
s 1
f 129/223/116 72/224/60 73/225/61 130/226/117 
s 2
f 129/223/116 128/227/115 70/228/58 72/224/60 
s 4
f 69/229/57 70/230/58 128/231/115 127/232/114 
s off
f 63/88/118 62/87/118 131/233/118 
f 62/87/119 64/89/119 132/234/119 131/233/119 
f 64/89/120 65/90/120 133/235/120 132/234/120 
f 65/90/120 66/91/120 134/236/120 133/235/120 
f 66/91/120 67/92/120 135/237/120 134/236/120 
f 67/92/120 83/125/120 135/237/120 
f 121/189/121 63/188/121 131/238/121 
f 122/190/122 121/189/122 131/238/122 136/239/122 
f 123/191/123 122/190/123 136/239/123 137/240/123 
f 124/192/123 123/191/123 137/240/123 138/241/123 
f 125/193/123 124/192/123 138/241/123 135/242/123 
f 83/214/120 125/193/120 135/242/120 
f 131/233/121 132/234/121 139/243/121 
f 132/234/123 133/235/123 139/243/123 
f 133/235/123 134/236/123 139/244/123 
f 134/236/122 135/237/122 139/244/122 
f 136/239/118 131/238/118 139/245/118 
f 137/240/120 136/239/120 139/245/120 
f 138/241/120 137/240/120 139/245/120 
f 135/242/119 138/241/119 139/245/119 
# 127 polygons - 14 triangles

