# File produced by Open Asset Import Library (http://www.assimp.sf.net)
# (assimp v3.1.206520482)

mtllib Toolbox_F.mtl

# 8 vertex positions
v 58.959 39.3422 21.2864
v 58.959 69.9888 21.2864
v 58.959 69.9888 46.5874
v 58.959 39.3422 46.5874
v 50.2114 69.9888 46.5874
v 50.2114 69.9888 21.2864
v 50.2114 39.3422 21.2864
v 50.2114 39.3422 46.5874

# 24 UV coordinates
vt 0.7181 0.0322 0
vt 0.7181 0.6786 0
vt 0.3718 0.6786 0
vt 0.3718 0.0322 0
vt 0.0139 0.0322 0
vt 0.3603 0.0322 0
vt 0.3603 0.6786 0
vt 0.0139 0.6786 0
vt 0.7296 0.0322 0
vt 0.8544 0.0322 0
vt 0.8544 0.6065 0
vt 0.7296 0.6065 0
vt 0.8835 0.8665 0
vt 0.4547 0.8665 0
vt 0.4547 0.6912 0
vt 0.8835 0.6912 0
vt 0.991 0.6052 0
vt 0.8649 0.6052 0
vt 0.8649 0.0322 0
vt 0.991 0.0322 0
vt 0.0139 0.8659 0
vt 0.0139 0.6912 0
vt 0.4434 0.6912 0
vt 0.4434 0.8659 0

# 8 vertex normals
vn 0.5775 -0.5775 -0.5771
vn 0.5775 0.5775 -0.5771
vn 0.5772 0.5776 0.5772
vn 0.5774 -0.5774 0.5774
vn -0.5772 0.5776 0.5772
vn -0.5775 0.5775 -0.5771
vn -0.5775 -0.5775 -0.5771
vn -0.5774 -0.5774 0.5774

# Mesh 'g Woodbox_low_Woodbox_low' with 12 faces
g g Woodbox_low_Woodbox_low
usemtl Caravan_high_Caravan_high_Material__37
f 1/1/1 2/2/2 3/3/3
f 3/3/3 4/4/4 1/1/1
f 5/5/5 6/6/6 7/7/7
f 7/7/7 8/8/8 5/5/5
f 8/9/8 4/10/4 3/11/3
f 3/11/3 5/12/5 8/9/8
f 3/13/3 2/14/2 6/15/6
f 6/15/6 5/16/5 3/13/3
f 1/17/1 7/18/7 6/19/6
f 6/19/6 2/20/2 1/17/1
f 4/21/4 8/22/8 7/23/7
f 7/23/7 1/24/1 4/21/4

